<?xml version="1.0" encoding="UTF-8"?>
<svg width="304px" height="166px" viewBox="0 0 304 166" version="1.1" xmlns="http://www.w3.org/2000/svg" xmlns:xlink="http://www.w3.org/1999/xlink">
    <!-- Generator: Sketch 51 (57462) - http://www.bohemiancoding.com/sketch -->
    <title>thumbnail-logo-color-full</title>
    <desc>Created with Sketch.</desc>
    <defs></defs>
    <g id="Page-1" stroke="none" stroke-width="1" fill="none" fill-rule="evenodd">
        <g id="thumbnail-logo-color-full">
            <g id="bg" fill="#000000" fill-rule="nonzero">
                <rect id="Rectangle-path" fill-opacity="0" x="0" y="0" width="304" height="165.818182"></rect>
                <path d="M0,0 L13.8181818,0 L13.8181818,13.8181818 L0,13.8181818 L0,0 Z M13.8181818,13.8181818 L27.6363636,13.8181818 L27.6363636,27.6363636 L13.8181818,27.6363636 L13.8181818,13.8181818 Z M27.6363636,0 L41.4545455,0 L41.4545455,13.8181818 L27.6363636,13.8181818 L27.6363636,0 Z M41.4545455,13.8181818 L55.2727273,13.8181818 L55.2727273,27.6363636 L41.4545455,27.6363636 L41.4545455,13.8181818 Z M55.2727273,0 L69.0909091,0 L69.0909091,13.8181818 L55.2727273,13.8181818 L55.2727273,0 Z M69.0909091,13.8181818 L82.9090909,13.8181818 L82.9090909,27.6363636 L69.0909091,27.6363636 L69.0909091,13.8181818 Z M82.9090909,0 L96.7272727,0 L96.7272727,13.8181818 L82.9090909,13.8181818 L82.9090909,0 Z M96.7272727,13.8181818 L110.545455,13.8181818 L110.545455,27.6363636 L96.7272727,27.6363636 L96.7272727,13.8181818 Z M110.545455,0 L124.363636,0 L124.363636,13.8181818 L110.545455,13.8181818 L110.545455,0 Z M124.363636,13.8181818 L138.181818,13.8181818 L138.181818,27.6363636 L124.363636,27.6363636 L124.363636,13.8181818 Z M138.181818,0 L152,0 L152,13.8181818 L138.181818,13.8181818 L138.181818,0 Z M152,13.8181818 L165.818182,13.8181818 L165.818182,27.6363636 L152,27.6363636 L152,13.8181818 Z M165.818182,0 L179.636364,0 L179.636364,13.8181818 L165.818182,13.8181818 L165.818182,0 Z M179.636364,13.8181818 L193.454545,13.8181818 L193.454545,27.6363636 L179.636364,27.6363636 L179.636364,13.8181818 Z M193.454545,0 L207.272727,0 L207.272727,13.8181818 L193.454545,13.8181818 L193.454545,0 Z M207.272727,13.8181818 L221.090909,13.8181818 L221.090909,27.6363636 L207.272727,27.6363636 L207.272727,13.8181818 Z M221.090909,0 L234.909091,0 L234.909091,13.8181818 L221.090909,13.8181818 L221.090909,0 Z M234.909091,13.8181818 L248.727273,13.8181818 L248.727273,27.6363636 L234.909091,27.6363636 L234.909091,13.8181818 Z M248.727273,0 L262.545455,0 L262.545455,13.8181818 L248.727273,13.8181818 L248.727273,0 Z M262.545455,13.8181818 L276.363636,13.8181818 L276.363636,27.6363636 L262.545455,27.6363636 L262.545455,13.8181818 Z M276.363636,0 L290.181818,0 L290.181818,13.8181818 L276.363636,13.8181818 L276.363636,0 Z M290.181818,13.8181818 L304,13.8181818 L304,27.6363636 L290.181818,27.6363636 L290.181818,13.8181818 Z M0,27.6363636 L13.8181818,27.6363636 L13.8181818,41.4545455 L0,41.4545455 L0,27.6363636 Z M13.8181818,41.4545455 L27.6363636,41.4545455 L27.6363636,55.2727273 L13.8181818,55.2727273 L13.8181818,41.4545455 Z M27.6363636,27.6363636 L41.4545455,27.6363636 L41.4545455,41.4545455 L27.6363636,41.4545455 L27.6363636,27.6363636 Z M41.4545455,41.4545455 L55.2727273,41.4545455 L55.2727273,55.2727273 L41.4545455,55.2727273 L41.4545455,41.4545455 Z M55.2727273,27.6363636 L69.0909091,27.6363636 L69.0909091,41.4545455 L55.2727273,41.4545455 L55.2727273,27.6363636 Z M69.0909091,41.4545455 L82.9090909,41.4545455 L82.9090909,55.2727273 L69.0909091,55.2727273 L69.0909091,41.4545455 Z M82.9090909,27.6363636 L96.7272727,27.6363636 L96.7272727,41.4545455 L82.9090909,41.4545455 L82.9090909,27.6363636 Z M96.7272727,41.4545455 L110.545455,41.4545455 L110.545455,55.2727273 L96.7272727,55.2727273 L96.7272727,41.4545455 Z M110.545455,27.6363636 L124.363636,27.6363636 L124.363636,41.4545455 L110.545455,41.4545455 L110.545455,27.6363636 Z M124.363636,41.4545455 L138.181818,41.4545455 L138.181818,55.2727273 L124.363636,55.2727273 L124.363636,41.4545455 Z M138.181818,27.6363636 L152,27.6363636 L152,41.4545455 L138.181818,41.4545455 L138.181818,27.6363636 Z M152,41.4545455 L165.818182,41.4545455 L165.818182,55.2727273 L152,55.2727273 L152,41.4545455 Z M165.818182,27.6363636 L179.636364,27.6363636 L179.636364,41.4545455 L165.818182,41.4545455 L165.818182,27.6363636 Z M179.636364,41.4545455 L193.454545,41.4545455 L193.454545,55.2727273 L179.636364,55.2727273 L179.636364,41.4545455 Z M193.454545,27.6363636 L207.272727,27.6363636 L207.272727,41.4545455 L193.454545,41.4545455 L193.454545,27.6363636 Z M207.272727,41.4545455 L221.090909,41.4545455 L221.090909,55.2727273 L207.272727,55.2727273 L207.272727,41.4545455 Z M221.090909,27.6363636 L234.909091,27.6363636 L234.909091,41.4545455 L221.090909,41.4545455 L221.090909,27.6363636 Z M234.909091,41.4545455 L248.727273,41.4545455 L248.727273,55.2727273 L234.909091,55.2727273 L234.909091,41.4545455 Z M248.727273,27.6363636 L262.545455,27.6363636 L262.545455,41.4545455 L248.727273,41.4545455 L248.727273,27.6363636 Z M262.545455,41.4545455 L276.363636,41.4545455 L276.363636,55.2727273 L262.545455,55.2727273 L262.545455,41.4545455 Z M276.363636,27.6363636 L290.181818,27.6363636 L290.181818,41.4545455 L276.363636,41.4545455 L276.363636,27.6363636 Z M290.181818,41.4545455 L304,41.4545455 L304,55.2727273 L290.181818,55.2727273 L290.181818,41.4545455 Z M0,55.2727273 L13.8181818,55.2727273 L13.8181818,69.0909091 L0,69.0909091 L0,55.2727273 Z M13.8181818,69.0909091 L27.6363636,69.0909091 L27.6363636,82.9090909 L13.8181818,82.9090909 L13.8181818,69.0909091 Z M27.6363636,55.2727273 L41.4545455,55.2727273 L41.4545455,69.0909091 L27.6363636,69.0909091 L27.6363636,55.2727273 Z M41.4545455,69.0909091 L55.2727273,69.0909091 L55.2727273,82.9090909 L41.4545455,82.9090909 L41.4545455,69.0909091 Z M55.2727273,55.2727273 L69.0909091,55.2727273 L69.0909091,69.0909091 L55.2727273,69.0909091 L55.2727273,55.2727273 Z M69.0909091,69.0909091 L82.9090909,69.0909091 L82.9090909,82.9090909 L69.0909091,82.9090909 L69.0909091,69.0909091 Z M82.9090909,55.2727273 L96.7272727,55.2727273 L96.7272727,69.0909091 L82.9090909,69.0909091 L82.9090909,55.2727273 Z M96.7272727,69.0909091 L110.545455,69.0909091 L110.545455,82.9090909 L96.7272727,82.9090909 L96.7272727,69.0909091 Z M110.545455,55.2727273 L124.363636,55.2727273 L124.363636,69.0909091 L110.545455,69.0909091 L110.545455,55.2727273 Z M124.363636,69.0909091 L138.181818,69.0909091 L138.181818,82.9090909 L124.363636,82.9090909 L124.363636,69.0909091 Z M138.181818,55.2727273 L152,55.2727273 L152,69.0909091 L138.181818,69.0909091 L138.181818,55.2727273 Z M152,69.0909091 L165.818182,69.0909091 L165.818182,82.9090909 L152,82.9090909 L152,69.0909091 Z M165.818182,55.2727273 L179.636364,55.2727273 L179.636364,69.0909091 L165.818182,69.0909091 L165.818182,55.2727273 Z M179.636364,69.0909091 L193.454545,69.0909091 L193.454545,82.9090909 L179.636364,82.9090909 L179.636364,69.0909091 Z M193.454545,55.2727273 L207.272727,55.2727273 L207.272727,69.0909091 L193.454545,69.0909091 L193.454545,55.2727273 Z M207.272727,69.0909091 L221.090909,69.0909091 L221.090909,82.9090909 L207.272727,82.9090909 L207.272727,69.0909091 Z M221.090909,55.2727273 L234.909091,55.2727273 L234.909091,69.0909091 L221.090909,69.0909091 L221.090909,55.2727273 Z M234.909091,69.0909091 L248.727273,69.0909091 L248.727273,82.9090909 L234.909091,82.9090909 L234.909091,69.0909091 Z M248.727273,55.2727273 L262.545455,55.2727273 L262.545455,69.0909091 L248.727273,69.0909091 L248.727273,55.2727273 Z M262.545455,69.0909091 L276.363636,69.0909091 L276.363636,82.9090909 L262.545455,82.9090909 L262.545455,69.0909091 Z M276.363636,55.2727273 L290.181818,55.2727273 L290.181818,69.0909091 L276.363636,69.0909091 L276.363636,55.2727273 Z M290.181818,69.0909091 L304,69.0909091 L304,82.9090909 L290.181818,82.9090909 L290.181818,69.0909091 Z M0,82.9090909 L13.8181818,82.9090909 L13.8181818,96.7272727 L0,96.7272727 L0,82.9090909 Z M13.8181818,96.7272727 L27.6363636,96.7272727 L27.6363636,110.545455 L13.8181818,110.545455 L13.8181818,96.7272727 Z M27.6363636,82.9090909 L41.4545455,82.9090909 L41.4545455,96.7272727 L27.6363636,96.7272727 L27.6363636,82.9090909 Z M41.4545455,96.7272727 L55.2727273,96.7272727 L55.2727273,110.545455 L41.4545455,110.545455 L41.4545455,96.7272727 Z M55.2727273,82.9090909 L69.0909091,82.9090909 L69.0909091,96.7272727 L55.2727273,96.7272727 L55.2727273,82.9090909 Z M69.0909091,96.7272727 L82.9090909,96.7272727 L82.9090909,110.545455 L69.0909091,110.545455 L69.0909091,96.7272727 Z M82.9090909,82.9090909 L96.7272727,82.9090909 L96.7272727,96.7272727 L82.9090909,96.7272727 L82.9090909,82.9090909 Z M96.7272727,96.7272727 L110.545455,96.7272727 L110.545455,110.545455 L96.7272727,110.545455 L96.7272727,96.7272727 Z M110.545455,82.9090909 L124.363636,82.9090909 L124.363636,96.7272727 L110.545455,96.7272727 L110.545455,82.9090909 Z M124.363636,96.7272727 L138.181818,96.7272727 L138.181818,110.545455 L124.363636,110.545455 L124.363636,96.7272727 Z M138.181818,82.9090909 L152,82.9090909 L152,96.7272727 L138.181818,96.7272727 L138.181818,82.9090909 Z M152,96.7272727 L165.818182,96.7272727 L165.818182,110.545455 L152,110.545455 L152,96.7272727 Z M165.818182,82.9090909 L179.636364,82.9090909 L179.636364,96.7272727 L165.818182,96.7272727 L165.818182,82.9090909 Z M179.636364,96.7272727 L193.454545,96.7272727 L193.454545,110.545455 L179.636364,110.545455 L179.636364,96.7272727 Z M193.454545,82.9090909 L207.272727,82.9090909 L207.272727,96.7272727 L193.454545,96.7272727 L193.454545,82.9090909 Z M207.272727,96.7272727 L221.090909,96.7272727 L221.090909,110.545455 L207.272727,110.545455 L207.272727,96.7272727 Z M221.090909,82.9090909 L234.909091,82.9090909 L234.909091,96.7272727 L221.090909,96.7272727 L221.090909,82.9090909 Z M234.909091,96.7272727 L248.727273,96.7272727 L248.727273,110.545455 L234.909091,110.545455 L234.909091,96.7272727 Z M248.727273,82.9090909 L262.545455,82.9090909 L262.545455,96.7272727 L248.727273,96.7272727 L248.727273,82.9090909 Z M262.545455,96.7272727 L276.363636,96.7272727 L276.363636,110.545455 L262.545455,110.545455 L262.545455,96.7272727 Z M276.363636,82.9090909 L290.181818,82.9090909 L290.181818,96.7272727 L276.363636,96.7272727 L276.363636,82.9090909 Z M290.181818,96.7272727 L304,96.7272727 L304,110.545455 L290.181818,110.545455 L290.181818,96.7272727 Z M0,110.545455 L13.8181818,110.545455 L13.8181818,124.363636 L0,124.363636 L0,110.545455 Z M13.8181818,124.363636 L27.6363636,124.363636 L27.6363636,138.181818 L13.8181818,138.181818 L13.8181818,124.363636 Z M27.6363636,110.545455 L41.4545455,110.545455 L41.4545455,124.363636 L27.6363636,124.363636 L27.6363636,110.545455 Z M41.4545455,124.363636 L55.2727273,124.363636 L55.2727273,138.181818 L41.4545455,138.181818 L41.4545455,124.363636 Z M55.2727273,110.545455 L69.0909091,110.545455 L69.0909091,124.363636 L55.2727273,124.363636 L55.2727273,110.545455 Z M69.0909091,124.363636 L82.9090909,124.363636 L82.9090909,138.181818 L69.0909091,138.181818 L69.0909091,124.363636 Z M82.9090909,110.545455 L96.7272727,110.545455 L96.7272727,124.363636 L82.9090909,124.363636 L82.9090909,110.545455 Z M96.7272727,124.363636 L110.545455,124.363636 L110.545455,138.181818 L96.7272727,138.181818 L96.7272727,124.363636 Z M110.545455,110.545455 L124.363636,110.545455 L124.363636,124.363636 L110.545455,124.363636 L110.545455,110.545455 Z M124.363636,124.363636 L138.181818,124.363636 L138.181818,138.181818 L124.363636,138.181818 L124.363636,124.363636 Z M138.181818,110.545455 L152,110.545455 L152,124.363636 L138.181818,124.363636 L138.181818,110.545455 Z M152,124.363636 L165.818182,124.363636 L165.818182,138.181818 L152,138.181818 L152,124.363636 Z M165.818182,110.545455 L179.636364,110.545455 L179.636364,124.363636 L165.818182,124.363636 L165.818182,110.545455 Z M179.636364,124.363636 L193.454545,124.363636 L193.454545,138.181818 L179.636364,138.181818 L179.636364,124.363636 Z M193.454545,110.545455 L207.272727,110.545455 L207.272727,124.363636 L193.454545,124.363636 L193.454545,110.545455 Z M207.272727,124.363636 L221.090909,124.363636 L221.090909,138.181818 L207.272727,138.181818 L207.272727,124.363636 Z M221.090909,110.545455 L234.909091,110.545455 L234.909091,124.363636 L221.090909,124.363636 L221.090909,110.545455 Z M234.909091,124.363636 L248.727273,124.363636 L248.727273,138.181818 L234.909091,138.181818 L234.909091,124.363636 Z M248.727273,110.545455 L262.545455,110.545455 L262.545455,124.363636 L248.727273,124.363636 L248.727273,110.545455 Z M262.545455,124.363636 L276.363636,124.363636 L276.363636,138.181818 L262.545455,138.181818 L262.545455,124.363636 Z M276.363636,110.545455 L290.181818,110.545455 L290.181818,124.363636 L276.363636,124.363636 L276.363636,110.545455 Z M290.181818,124.363636 L304,124.363636 L304,138.181818 L290.181818,138.181818 L290.181818,124.363636 Z M0,138.181818 L13.8181818,138.181818 L13.8181818,152 L0,152 L0,138.181818 Z M13.8181818,152 L27.6363636,152 L27.6363636,165.818182 L13.8181818,165.818182 L13.8181818,152 Z M27.6363636,138.181818 L41.4545455,138.181818 L41.4545455,152 L27.6363636,152 L27.6363636,138.181818 Z M41.4545455,152 L55.2727273,152 L55.2727273,165.818182 L41.4545455,165.818182 L41.4545455,152 Z M55.2727273,138.181818 L69.0909091,138.181818 L69.0909091,152 L55.2727273,152 L55.2727273,138.181818 Z M69.0909091,152 L82.9090909,152 L82.9090909,165.818182 L69.0909091,165.818182 L69.0909091,152 Z M82.9090909,138.181818 L96.7272727,138.181818 L96.7272727,152 L82.9090909,152 L82.9090909,138.181818 Z M96.7272727,152 L110.545455,152 L110.545455,165.818182 L96.7272727,165.818182 L96.7272727,152 Z M110.545455,138.181818 L124.363636,138.181818 L124.363636,152 L110.545455,152 L110.545455,138.181818 Z M124.363636,152 L138.181818,152 L138.181818,165.818182 L124.363636,165.818182 L124.363636,152 Z M138.181818,138.181818 L152,138.181818 L152,152 L138.181818,152 L138.181818,138.181818 Z M152,152 L165.818182,152 L165.818182,165.818182 L152,165.818182 L152,152 Z M165.818182,138.181818 L179.636364,138.181818 L179.636364,152 L165.818182,152 L165.818182,138.181818 Z M179.636364,152 L193.454545,152 L193.454545,165.818182 L179.636364,165.818182 L179.636364,152 Z M193.454545,138.181818 L207.272727,138.181818 L207.272727,152 L193.454545,152 L193.454545,138.181818 Z M207.272727,152 L221.090909,152 L221.090909,165.818182 L207.272727,165.818182 L207.272727,152 Z M221.090909,138.181818 L234.909091,138.181818 L234.909091,152 L221.090909,152 L221.090909,138.181818 Z M234.909091,152 L248.727273,152 L248.727273,165.818182 L234.909091,165.818182 L234.909091,152 Z M248.727273,138.181818 L262.545455,138.181818 L262.545455,152 L248.727273,152 L248.727273,138.181818 Z M262.545455,152 L276.363636,152 L276.363636,165.818182 L262.545455,165.818182 L262.545455,152 Z M276.363636,138.181818 L290.181818,138.181818 L290.181818,152 L276.363636,152 L276.363636,138.181818 Z M290.181818,152 L304,152 L304,165.818182 L290.181818,165.818182 L290.181818,152 Z" id="checkboard" fill-opacity="0.0500000007"></path>
            </g>
            <path d="M173.663349,96.4400413 C171.48384,96.4400413 170.35514,96.0873042 169.42117,95.1077071 C168.020031,93.6971322 167.475154,91.7375646 167.475154,85.6639135 C167.475154,79.5508619 168.020031,77.6306948 169.42117,76.1809061 C170.316193,75.2403361 171.48384,74.887599 173.663349,74.887599 L180.941113,74.887599 C183.120437,74.887599 184.249138,75.2403361 185.183107,76.1809061 C186.584246,77.6306948 187.129123,79.5508619 187.129123,85.6639135 C187.129123,91.7767784 186.584246,93.6971322 185.183107,95.1077071 C184.249138,96.0873042 183.120437,96.4400413 180.941113,96.4400413 L173.663349,96.4400413 Z M173.390725,91.6942428 L181.213552,91.6942428 L181.213552,79.6248079 L173.390725,79.6248079 L173.390725,91.6942428 Z M204.823649,81.708459 L204.825318,81.708459 L204.825318,79.7078103 L202.664726,79.7078103 C202.633754,79.7076236 202.602227,79.7076236 202.570142,79.7076236 L200.896564,79.7076236 C200.874495,79.7076236 200.852611,79.7076236 200.830726,79.7078103 L197.509349,79.7078103 L197.509349,81.708459 L197.510462,81.708459 L197.510462,96.4401346 L191.55613,96.4401346 L191.55613,74.8876924 L195.47728,74.8876924 L195.47728,74.8863853 L197.488022,74.8863853 L197.488022,75.274228 L197.488022,77.6119283 L200.48837,74.8863853 L202.229269,74.8863853 C202.503563,74.8587489 202.794547,74.8486654 203.114834,74.8486654 L205.722567,74.8486654 C207.551744,74.8486654 208.719206,75.2402428 209.536522,76.0633582 C210.431544,76.9255007 210.781876,78.0617661 210.781876,81.2358398 L210.781876,96.4401346 L204.827358,96.4401346 L204.827358,81.9411273 C204.827358,81.860459 204.82606,81.7829651 204.823649,81.708459 Z M158.16851,68.9286015 L165.25451,68.9286015 L155.075618,81.8971518 L165.685145,96.5212698 L158.16851,96.5212698 L150.099209,85.0307047 L148.185462,85.0217415 L148.185462,96.5212698 L141.804205,96.5212698 L141.804205,68.9286015 L148.185462,68.9286015 L148.185462,79.6244344 L150.096612,79.6244344 L158.16851,68.9286015 Z M229.041902,74.8863292 L235.034253,74.8876364 L235.034253,97.3375135 C235.034253,101.060206 234.644975,101.690801 233.67206,102.709612 C232.89369,103.532541 231.648336,103.924491 229.468827,103.924491 L220.68755,103.906005 L217.980968,100.885238 L217.972623,99.6147125 L229.041902,99.6147125 L229.031145,96.5414742 L221.480942,96.5366192 C219.184594,96.5366192 218.026777,96.1050811 217.053676,95.1645111 C215.808322,93.8713907 215.302391,91.0412776 215.302391,85.7511548 C215.302391,80.4218182 215.92516,77.5130909 217.209275,76.1809435 C218.182191,75.2403735 219.427731,74.8486093 221.568293,74.8486093 L226.041368,74.8863292 L229.041902,77.6118722 L229.041902,74.8863292 Z M221.256723,91.7021229 L229.07955,91.7021229 L229.07955,79.6248452 L221.256723,79.6248452 L221.256723,91.7021229 Z" id="logotype" fill="#003459" fill-rule="nonzero"></path>
            <g id="logotype" transform="translate(68.000000, 55.000000)">
                <polygon id="Fill-1" fill="#169FCC" points="20.5495609 46 19 47.9699801 22.498577 53.4594089 22.1345901 56 36.9743244 56 38 53.4594089 32.0360804 46"></polygon>
                <polygon id="Fill-2" fill="#17CFB0" points="28.2823053 13.0090399 23 22.1370919 48.7722009 52.2411316 48.0367191 55 59.8570863 55 62 45.2080794 34.4197156 13"></polygon>
                <polygon id="Fill-3" fill="#1BC263" points="39.8263839 0 32.4769405 5.96818382 30 10.5104507 36.1513796 10.5104507 46.7175115 23 53 17.8764712 53 14.6202813 50.8152289 11.5763784 52.4280941 9.91009425"></polygon>
                <polygon id="Fill-4" fill="#16BDCC" points="12.4531914 32.5918598 9.02769105 32.5918598 0 44.092042 0 56 9.68531504 56 11.3929979 53.7673991 18.8678405 44.0621083 29.6730307 44.0621083 33 38.9513555 21.2821313 25"></polygon>
            </g>
        </g>
    </g>
</svg>